Coordinates
version=1
nRows=17
nColumns=40
inDegrees=yes

Units are S.I. units (second, meters, Newtons, ...)
Angles are in degrees.

endheader
time	pelvis_tilt	pelvis_list	pelvis_rotation	pelvis_tx	pelvis_ty	pelvis_tz	hip_flexion_r	hip_adduction_r	hip_rotation_r	knee_angle_r	knee_angle_r_beta	ankle_angle_r	subtalar_angle_r	mtp_angle_r	hip_flexion_l	hip_adduction_l	hip_rotation_l	knee_angle_l	knee_angle_l_beta	ankle_angle_l	subtalar_angle_l	mtp_angle_l	lumbar_extension	lumbar_bending	lumbar_rotation	arm_flex_r	arm_add_r	arm_rot_r	elbow_flex_r	pro_sup_r	wrist_flex_r	wrist_dev_r	arm_flex_l	arm_add_l	arm_rot_l	elbow_flex_l	pro_sup_l	wrist_flex_l	wrist_dev_l
     23.43000000	     -2.11602504	     -5.82202880	     -0.15709141	      1.07982550	      0.93874927	      0.40465692	     29.11187313	     -5.51872290	    -10.50632582	     36.97371999	     36.97371999	      1.28401208	     -7.93003284	      1.77109527	     13.97422572	     -7.30034826	    -12.59401921	     20.05580454	     20.05580454	     12.77796485	     -0.12559675	     -6.38041386	    -11.12433742	      0.91370506	     -2.03067899	     -5.13053375	    -15.01835060	      0.51954188	     32.42042489	     45.87119707	      0.00000000	      0.00000000	     16.57872542	    -16.37701854	      0.52163641	     30.33994633	     45.47064860	      0.00000000	      0.00000000
     23.44364286	     -2.30283756	     -5.75760330	     -0.43531923	      1.07850767	      0.93861819	      0.40447215	     29.46322509	     -5.55688258	    -10.92113666	     33.62791272	     33.62791272	      1.31570942	     -7.01434627	      1.90378958	     13.72812572	     -7.23194673	    -12.84635898	     19.90146576	     19.90146576	     12.91176650	     -0.11577437	     -6.43864453	    -10.97697548	      0.72836713	     -2.22750283	     -6.03045048	    -15.05908279	      0.52327774	     31.88492362	     45.88647134	      0.00000000	      0.00000000	     17.01322365	    -16.47518898	      0.48787203	     30.61182711	     45.48718918	      0.00000000	      0.00000000
     23.45728571	     -2.24928001	     -5.65770314	     -0.67260649	      1.07747836	      0.93874838	      0.40417443	     29.01492926	     -5.57049935	    -11.65392127	     29.27169090	     29.27169090	     -0.45496505	     -6.06560913	     -2.70191010	     13.18983159	     -7.13227056	    -13.23142348	     19.73577436	     19.73577436	     13.11552118	      0.12813568	     -6.56313136	    -11.10651233	      0.51944477	     -2.25466136	     -6.46275244	    -14.89195221	     -0.55933355	     29.68165557	     46.05723100	      0.00000000	      0.00000000	     17.48511174	    -16.45565339	      0.27066104	     31.26554419	     45.58880730	      0.00000000	      0.00000000
     23.47092857	     -2.28713421	     -5.58278176	     -0.91454693	      1.07638422	      0.93869184	      0.40403066	     28.72388071	     -5.45507637	    -12.21500066	     25.21055656	     25.21055656	     -0.66626683	     -4.32538827	     -2.11205871	     12.78392696	     -7.04623161	    -13.47647987	     19.59805561	     19.59805561	     13.30429061	      0.14878309	     -6.61758902	    -11.13736023	      0.34825959	     -2.30850448	     -7.40618477	    -14.97712405	     -0.70137565	     29.23944291	     46.07837400	      0.00000000	      0.00000000	     17.93596067	    -16.49994185	      0.19254142	     31.78538421	     45.61468588	      0.00000000	      0.00000000
     23.48457143	     -2.30992638	     -5.46192054	     -1.14377811	      1.07537870	      0.93853883	      0.40398822	     28.31679709	     -5.33674617	    -12.79940057	     21.16335761	     21.16335761	     -0.90328005	     -2.14018849	     -1.31073144	     12.36252274	     -6.92309600	    -13.77508185	     19.46446418	     19.46446418	     13.50545021	      0.25516406	     -6.70866869	    -11.16761448	      0.12859286	     -2.33871742	     -8.24895697	    -15.02752631	     -0.89633012	     28.73669607	     46.10722341	      0.00000000	      0.00000000	     18.34879169	    -16.52989390	      0.09968695	     32.35873493	     45.64182096	      0.00000000	      0.00000000
     23.49821429	     -2.33963248	     -5.33597064	     -1.35840096	      1.07445467	      0.93828139	      0.40404732	     27.89584463	     -5.18965567	    -13.34230428	     17.34951565	     17.34951565	     -1.12004045	      0.30178321	     -0.14003851	     11.94627459	     -6.79811783	    -14.06267077	     19.32434915	     19.32434915	     13.73260131	      0.39218768	     -6.82517596	    -11.17711758	     -0.08624156	     -2.38398790	     -8.99171591	    -15.05101608	     -1.11623654	     28.27914813	     46.13712013	      0.00000000	      0.00000000	     18.70409938	    -16.54099228	      0.00173175	     32.96242947	     45.66766090	      0.00000000	      0.00000000
     23.51185714	     -2.34858809	     -5.17647943	     -1.58548495	      1.07358116	      0.93799728	      0.40426999	     27.53734611	     -5.07519670	    -13.85220763	     14.02153044	     14.02153044	     -1.18973654	      2.94913582	      1.42983755	     11.50985099	     -6.65006977	    -14.39140845	     19.19611324	     19.19611324	     13.95941422	      0.54113195	     -6.96015667	    -11.21355576	     -0.34605711	     -2.39315611	     -9.59331555	    -15.01694771	     -1.37307292	     27.90511556	     46.16764653	      0.00000000	      0.00000000	     19.01863352	    -16.55756868	     -0.11671756	     33.62658308	     45.69544984	      0.00000000	      0.00000000
     23.52550000	     -2.30240643	     -5.02784535	     -1.79269263	      1.07270641	      0.93778125	      0.40456843	     27.23626465	     -5.01060917	    -14.48087396	     11.31986818	     11.31986818	     -0.91837106	      5.85035288	      3.68478346	     11.01150465	     -6.50987689	    -14.72140841	     19.04555266	     19.04555266	     14.16906838	      0.71962819	     -7.10861677	    -11.32315496	     -0.56255367	     -2.36627248	    -10.04753014	    -14.97362045	     -1.74898857	     27.62496213	     46.20467242	      0.00000000	      0.00000000	     19.25172307	    -16.56630899	     -0.28506999	     34.43892885	     45.73041553	      0.00000000	      0.00000000
     23.53914286	     -2.40026117	     -4.87944258	     -2.02307446	      1.07167355	      0.93749200	      0.40492131	     27.54240159	     -5.12215846	    -15.32230006	     10.02448446	     10.02448446	      1.29158647	      8.94820540	     10.94787696	     10.66961807	     -6.35948908	    -14.98685841	     18.86150128	     18.86150128	     14.32525217	      0.76414492	     -7.33524283	    -11.31150006	     -0.77133828	     -2.58376080	    -10.15923090	    -14.72753347	     -3.40813411	     27.46221818	     46.33553404	      0.00000000	      0.00000000	     18.95057637	    -16.69028904	     -0.92092619	     36.19321787	     45.84648259	      0.00000000	      0.00000000
     23.55278571	     -2.42614054	     -4.79437346	     -2.24202564	      1.07079327	      0.93727609	      0.40555228	     27.43281437	     -4.96005793	    -15.36790333	      8.35581037	      8.35581037	      1.18483927	     10.40043063	     11.94835558	     10.22643663	     -6.27729016	    -15.19498509	     18.65443167	     18.65443167	     14.51979040	      0.77524286	     -7.39843578	    -11.32496432	     -0.89456826	     -2.51854475	    -10.37025677	    -14.69705476	     -3.63255125	     27.37842535	     46.35293176	      0.00000000	      0.00000000	     19.23234582	    -16.60666393	     -1.03740619	     36.55989473	     45.87370443	      0.00000000	      0.00000000
     23.56642857	     -2.45480249	     -4.69682184	     -2.43684278	      1.06999584	      0.93710689	      0.40622363	     27.45612210	     -4.92298477	    -15.60225602	      7.47396357	      7.47396357	      1.35144889	     11.74255794	     13.08942708	      9.75635498	     -6.17299032	    -15.39181203	     18.39429865	     18.39429865	     14.69999511	      0.82139534	     -7.52387577	    -11.30303466	     -1.05070710	     -2.50606161	    -10.48751498	    -14.61977699	     -3.94734008	     27.55759428	     46.36519644	      0.00000000	      0.00000000	     19.36364877	    -16.50507753	     -1.25283647	     37.12092922	     45.91305934	      0.00000000	      0.00000000
     23.58007143	     -2.49860600	     -4.65204362	     -2.64942539	      1.06921094	      0.93700258	      0.40697518	     27.52090576	     -4.85307977	    -15.64618143	      7.14819467	      7.14819467	      1.44382635	     12.45679953	     13.75986369	      9.25020365	     -6.10749312	    -15.57965903	     18.03234755	     18.03234755	     14.81432674	      0.82596812	     -7.59774728	    -11.31897802	     -1.07463206	     -2.50672337	    -10.46305305	    -14.56085962	     -4.19867793	     27.88362814	     46.36714644	      0.00000000	      0.00000000	     19.43422774	    -16.43186872	     -1.48394195	     37.64761456	     45.95142687	      0.00000000	      0.00000000
     23.59371429	     -2.59290351	     -4.64170156	     -2.77584795	      1.06850964	      0.93676917	      0.40775480	     27.56099231	     -4.78617453	    -15.59084470	      7.20689401	      7.20689401	      1.33489346	     12.50418471	     13.79610690	      8.97703102	     -6.12327755	    -15.61861373	     18.01296308	     18.01296308	     15.04616642	      0.76123307	     -7.67153045	    -11.15937460	     -1.06021547	     -2.58745318	    -10.38810686	    -14.52679624	     -4.20367208	     27.93324917	     46.36589130	      0.00000000	      0.00000000	     19.54746278	    -16.36921763	     -1.47887364	     37.71394335	     45.95286150	      0.00000000	      0.00000000
     23.60735714	     -2.56924679	     -4.53149337	     -3.02964091	      1.06801831	      0.93679651	      0.40870421	     27.62421163	     -4.85709719	    -15.39553967	      8.03814859	      8.03814859	      1.39071489	     12.30084905	     13.56300380	      8.21972734	     -5.95564573	    -15.91563651	     17.35871614	     17.35871614	     15.13561311	      0.87717549	     -7.66894875	    -11.21940588	     -1.14702119	     -2.55418178	     -9.98316726	    -14.45504159	     -4.35041272	     28.52841392	     46.35212968	      0.00000000	      0.00000000	     19.53158845	    -16.24079776	     -1.67613609	     38.13226170	     45.98130727	      0.00000000	      0.00000000
     23.62100000	     -2.56055186	     -4.36609719	     -3.20762719	      1.06774186	      0.93671169	      0.40956716	     27.59497939	     -5.01152085	    -15.08220748	      9.14760632	      9.14760632	      1.26622015	     11.63477668	     12.89193075	      7.52908312	     -5.71180959	    -16.06412527	     16.79144834	     16.79144834	     15.19866356	      0.93742751	     -7.80979907	    -11.16357229	     -1.26689300	     -2.67255329	     -9.78020843	    -14.40529847	     -4.55360880	     29.34361904	     46.32932275	      0.00000000	      0.00000000	     19.34137847	    -16.14994887	     -2.01029978	     38.61858680	     46.02480368	      0.00000000	      0.00000000
     23.63464286	     -2.49998114	     -4.23519680	     -3.33434400	      1.06776541	      0.93650807	      0.41050115	     27.28686604	     -5.08552074	    -14.58375004	     10.23381008	     10.23381008	      0.46922410	     10.47818837	     10.39648724	      6.76688104	     -5.48031418	    -16.04044272	     16.19034840	     16.19034840	     15.01005251	      0.68886321	     -8.55441114	    -11.15457632	     -1.31241856	     -2.82676134	     -9.89450122	    -14.42599935	     -4.94138345	     31.32479648	     46.25450748	      0.00000000	      0.00000000	     18.87702996	    -15.96175806	     -3.08561895	     39.65206036	     46.16205716	      0.00000000	      0.00000000
     23.64828571	     -2.45753128	     -4.00678248	     -3.45467309	      1.06799256	      0.93621200	      0.41146462	     27.03968092	     -5.32768885	    -14.22707240	     11.79645007	     11.79645007	      0.36205514	      9.56366544	      9.67123478	      6.00588532	     -5.18778336	    -16.27448479	     15.61530469	     15.61530469	     15.14061713	      0.96700095	     -8.64013407	    -11.04941068	     -1.46687792	     -2.92982582	     -9.43044528	    -14.36129561	     -4.93471506	     31.79959009	     46.23359414	      0.00000000	      0.00000000	     18.77129334	    -15.80808893	     -3.18031177	     39.52487326	     46.17351889	      0.00000000	      0.00000000
